# xmcd
#
# Track frame offsets: 
#        150
#        13610
#        34950
#        54200
#        65637
#        88062
#        112175
#        128765
#        139845
#        162020
#
# Disc length: 2414 seconds
#
# Revision: 1
# Processed by: cddbd v1.5.2PL0 Copyright (c) Steve Scherf et al.
# Submitted via: ExactAudioCopy v0.99pb5
#
DISCID=86096c0a
DTITLE=Franck Monnet - Les embellies
DYEAR=2000
DGENRE=Chanson
TTITLE0=Les bancs
TTITLE1=J'adore t'écrire
TTITLE2=Soliloque
TTITLE3=Gilbert
TTITLE4=J'ai perdu la tête
TTITLE5=Ma demeure
TTITLE6=Tititi - car il y a un mais
TTITLE7=Les embellies de mai
TTITLE8=Lumio
TTITLE9=Ever est
EXTD=
EXTT0=
EXTT1=
EXTT2=
EXTT3=
EXTT4=
EXTT5=
EXTT6=
EXTT7=
EXTT8=
EXTT9=
PLAYORDER=
